<svg width="61" height="61" viewBox="0 0 61 61" fill="none" xmlns="http://www.w3.org/2000/svg">
<path fill-rule="evenodd" clip-rule="evenodd" d="M49 0C55.6274 1.28852e-07 61 5.37258 61 12V49C61 55.6274 55.6274 61 49 61H12C5.37258 61 1.28855e-07 55.6274 0 49V12C1.28855e-07 5.37258 5.37258 1.28852e-07 12 0H49ZM23.8076 27.9492C20.9885 27.9492 19.0371 30.2029 19.0371 32.8623V46C19.0371 46 24.9198 46 24.9199 41.0879V34.0078H32.6299C36.9183 34.0074 37.5156 27.9492 37.5156 27.9492H23.8076ZM23.8076 16C19.1586 16 19.0376 20.8685 19 22.0576H38.1133C42.4019 22.0576 43 16 43 16H23.8076Z" fill="#4E515C"/>
</svg>
